<svg width="20" height="20" viewBox="0 0 20 20" fill="none" xmlns="http://www.w3.org/2000/svg">
<circle cx="10" cy="10" r="10" fill="white"/>
<path d="M9.99967 13.7916C12.0938 13.7916 13.7913 12.094 13.7913 9.99992C13.7913 7.90584 12.0938 6.20825 9.99967 6.20825C7.90559 6.20825 6.20801 7.90584 6.20801 9.99992C6.20801 12.094 7.90559 13.7916 9.99967 13.7916Z" stroke="#155DA4" stroke-linecap="round" stroke-linejoin="round"/>
<path d="M14.1653 14.1651L14.0895 14.0892M14.0895 5.91091L14.1653 5.83508L14.0895 5.91091ZM5.83533 14.1651L5.91116 14.0892L5.83533 14.1651ZM10.0003 4.21341V4.16675V4.21341ZM10.0003 15.8334V15.7867V15.8334ZM4.21366 10.0001H4.16699H4.21366ZM15.8337 10.0001H15.787H15.8337ZM5.91116 5.91091L5.83533 5.83508L5.91116 5.91091Z" stroke="#155DA4" stroke-linecap="round" stroke-linejoin="round"/>
</svg>
