<svg width="20" height="20" viewBox="0 0 20 20" fill="none" xmlns="http://www.w3.org/2000/svg">
<circle cx="10" cy="10" r="10" fill="white"/>
<path d="M3.49133 11.4451C3.55948 11.3768 3.64493 11.3283 3.73853 11.3049C3.83212 11.2815 3.93032 11.2841 4.02258 11.3122C5.03556 11.6185 6.11265 11.6442 7.13907 11.3865C8.16549 11.1289 9.10279 10.5977 9.85109 9.84935C10.5994 9.10105 11.1307 8.16375 11.3883 7.13733C11.6459 6.1109 11.6202 5.03382 11.314 4.02084C11.2856 3.92854 11.2828 3.83023 11.3061 3.7365C11.3294 3.64276 11.3778 3.55714 11.4461 3.48885C11.5144 3.42056 11.6 3.37218 11.6937 3.3489C11.7874 3.32563 11.8857 3.32835 11.9781 3.35678C13.3785 3.78579 14.608 4.64558 15.4916 5.81381C16.2643 6.83969 16.7356 8.06071 16.8526 9.3397C16.9696 10.6187 16.7277 11.905 16.1539 13.054C15.5802 14.2031 14.6974 15.1694 13.6048 15.8444C12.5121 16.5194 11.2529 16.8763 9.9686 16.8751C8.47024 16.8797 7.01175 16.3926 5.81688 15.4885C4.64866 14.605 3.78886 13.3755 3.35985 11.975C3.33176 11.883 3.32915 11.7852 3.35231 11.6918C3.37546 11.5985 3.42351 11.5132 3.49133 11.4451ZM6.45571 14.6399C7.58093 15.4874 8.97444 15.8999 10.3797 15.8015C11.7849 15.7031 13.1074 15.1004 14.1035 14.1044C15.0996 13.1083 15.7024 11.7859 15.8009 10.3807C15.8995 8.97545 15.487 7.58191 14.6396 6.45662C14.0875 5.72752 13.3737 5.1365 12.5545 4.73006C12.6011 5.05759 12.6247 5.38801 12.6248 5.71885C12.6229 7.5499 11.8947 9.30541 10.5999 10.6002C9.30517 11.8949 7.54966 12.6232 5.7186 12.6251C5.38709 12.625 5.05601 12.6015 4.72782 12.5547C5.13464 13.3741 5.72613 14.0879 6.45571 14.6399Z" fill="#155DA4"/>
</svg>
