<svg width="14" height="14" viewBox="0 0 14 14" fill="none" xmlns="http://www.w3.org/2000/svg">
<path d="M0.491456 8.44493C0.559603 8.37665 0.645057 8.32821 0.738649 8.30481C0.832243 8.28141 0.930442 8.28394 1.02271 8.31212C2.03569 8.61836 3.11277 8.64404 4.13919 8.38642C5.16562 8.1288 6.10291 7.59753 6.85122 6.84923C7.59952 6.10093 8.13078 5.16363 8.38841 4.1372C8.64603 3.11078 8.62035 2.0337 8.31411 1.02072C8.28569 0.928413 8.28297 0.830108 8.30624 0.736374C8.32951 0.642639 8.37789 0.557022 8.44619 0.488729C8.51448 0.420437 8.6001 0.372053 8.69383 0.348782C8.78757 0.325511 8.88587 0.328233 8.97817 0.356654C10.3787 0.785668 11.6082 1.64546 12.4917 2.81369C13.2644 3.83957 13.7357 5.06059 13.8527 6.33957C13.9697 7.61856 13.7278 8.90483 13.1541 10.0539C12.5803 11.2029 11.6976 12.1692 10.6049 12.8442C9.51226 13.5192 8.25305 13.8762 6.96872 13.875C5.47037 13.8796 4.01188 13.3925 2.817 12.4884C1.64878 11.6049 0.788985 10.3753 0.359971 8.97486C0.331879 8.8829 0.329271 8.78504 0.352427 8.69171C0.375584 8.59839 0.423635 8.5131 0.491456 8.44493ZM3.45583 11.6397C4.58106 12.4873 5.97456 12.8998 7.37981 12.8014C8.78506 12.703 10.1075 12.1003 11.1036 11.1042C12.0998 10.1082 12.7026 8.78582 12.8011 7.38057C12.8996 5.97533 12.4872 4.58179 11.6397 3.4565C11.0876 2.7274 10.3739 2.13637 9.55458 1.72994C9.60125 2.05747 9.62477 2.38788 9.62497 2.71872C9.62304 4.54978 8.8948 6.30529 7.60004 7.60004C6.30529 8.8948 4.54978 9.62304 2.71872 9.62498C2.38722 9.62487 2.05613 9.60135 1.72794 9.55458C2.13476 10.374 2.72625 11.0878 3.45583 11.6397Z" fill="#155DA4"/>
</svg>
